<?xml version="1.0" encoding="utf-8"?><svg xmlns="http://www.w3.org/2000/svg" xmlns:xlink="http://www.w3.org/1999/xlink"><symbol fill="none" viewBox="0 0 25 24" id="courses" xmlns="http://www.w3.org/2000/svg"><path d="m2.93 14.954-1.865-.411C.52 15.645 0 16.883 0 18.31c0 1.4.498 2.623 1.065 3.767l6.308-1.391v2.744l2.197-1.099 2.198 1.1v-2.744l6.258 1.391c.543-1.094 1.066-2.335 1.066-3.768 0-.247-.018-.493-.05-.733H25V0H2.93v14.954Zm-1.03 5.44c-.19-.504-.435-1.304-.435-2.083 0-.78.245-1.58.436-2.084l5.472 1.207v1.753l-5.472 1.207Zm8.403.667-.733-.366-.732.366v-3.483h1.465v3.483Zm6.888-.668-5.423-1.205v-1.755l5.423-1.205c.19.504.436 1.304.436 2.082 0 .78-.245 1.58-.436 2.083Zm6.344-18.928v14.648h-4.831c-.24-.734-.434-1.081-.678-1.571l-7.071 1.571h-2.77l-3.79-.836V1.465h19.14Z" fill="#000"/><path d="M8.838 2.93h10.254v1.465H8.838V2.93ZM5.86 8.79h16.21v1.464H5.86V8.789ZM8.838 11.719h10.254v1.465H8.838v-1.465ZM10.303 5.86h1.465v1.464h-1.465V5.86ZM13.232 5.86h1.465v1.464h-1.465V5.86ZM16.162 5.86h1.465v1.464h-1.465V5.86Z" fill="#000"/></symbol><symbol fill="none" viewBox="0 0 29 30" id="close" xmlns="http://www.w3.org/2000/svg"><path d="M17.157 14.523 28.449 3.231a1.876 1.876 0 0 0 0-2.657 1.877 1.877 0 0 0-2.657 0L14.5 11.867 3.208.574a1.877 1.877 0 0 0-2.657 0 1.876 1.876 0 0 0 0 2.657l11.292 11.292L.551 25.816a1.876 1.876 0 0 0 0 2.656c.366.366.848.55 1.328.55.481 0 .962-.183 1.329-.55L14.5 17.18l11.292 11.292a1.874 1.874 0 0 0 2.657 0 1.876 1.876 0 0 0 0-2.657L17.157 14.524Z" fill="#000"/></symbol><symbol fill="none" viewBox="0 0 25 25" id="designer" xmlns="http://www.w3.org/2000/svg"><path d="m20.265 19.146-.65.433 1.53 2.296H3.855l1.823-2.734h9.924v-.782H5.47a.39.39 0 0 0-.325.174L2.8 22.05a.393.393 0 0 0-.066.217v1.172a.781.781 0 0 0 .782.78h17.968a.781.781 0 0 0 .782-.78v-1.172a.393.393 0 0 0-.066-.217l-1.935-2.903Zm-16.75 4.291v-.78h17.97v.78H3.514ZM20.313.781H4.688a1.175 1.175 0 0 0-1.172 1.172V12.11a1.175 1.175 0 0 0 1.171 1.172h5.47v1.563H8.593a.39.39 0 0 0-.39.39v1.563a.39.39 0 0 0 .39.39h7.812a.391.391 0 0 0 .39-.39v-1.563a.39.39 0 0 0-.39-.39h-1.562V13.28h5.469a1.175 1.175 0 0 0 1.171-1.172V1.953A1.176 1.176 0 0 0 20.312.781Zm-4.297 14.844v.781H8.984v-.781h7.032Zm-5.078-.781V13.28h3.124v1.563h-3.124Zm9.765-2.735a.39.39 0 0 1-.39.391H4.688a.39.39 0 0 1-.391-.39v-1.172h16.406v1.171Zm0-1.953H4.297V1.953a.39.39 0 0 1 .39-.39h15.625a.39.39 0 0 1 .391.39v8.203Z" fill="#000"/><path d="M18.36 11.328h.78v.781h-.78v-.78ZM8.984 9.375h1.563a.39.39 0 0 0 .39-.39v-.391h3.126v.39a.39.39 0 0 0 .39.391h1.563a.39.39 0 0 0 .39-.39V7.421a.39.39 0 0 0-.39-.39h-.391V4.686h.39a.39.39 0 0 0 .391-.39V2.734a.39.39 0 0 0-.39-.39h-1.563a.39.39 0 0 0-.39.39v.391h-3.126v-.39a.39.39 0 0 0-.39-.391H8.984a.39.39 0 0 0-.39.39v1.563a.39.39 0 0 0 .39.39h.391v2.344h-.39a.39.39 0 0 0-.391.39v1.563a.39.39 0 0 0 .39.391Zm6.641-.781h-.781v-.781h.781v.78Zm-.781-5.469h.781v.781h-.781v-.781Zm-5.469 0h.781v.781h-.781v-.781Zm.781 1.563h.39a.39.39 0 0 0 .392-.391v-.39h3.124v.39a.39.39 0 0 0 .391.39h.39v2.344h-.39a.39.39 0 0 0-.39.39v.391h-3.126v-.39a.39.39 0 0 0-.39-.39h-.39V4.686Zm-.781 3.125h.781v.78h-.781v-.78ZM8.984 20.313h5.47v.78h-5.47v-.78ZM23.387 14.39l-1.106-1.105a.386.386 0 0 0-.277-.113.38.38 0 0 0-.274.113l-5.25 5.25a.384.384 0 0 0-.093.152l-.278.829a.395.395 0 0 0 .094.398l-.55.555.55.55.555-.55a.386.386 0 0 0 .398.093l.828-.277a.384.384 0 0 0 .153-.094l5.25-5.25a.39.39 0 0 0 0-.55Zm-5.735 5.184-.511.168-.215-.21.172-.512 3.8-3.801.555.55-3.8 3.805Zm4.352-4.355-.55-.551.55-.555.555.555-.555.55Z" fill="#000"/></symbol><symbol fill="none" viewBox="0 0 25 25" id="developer" xmlns="http://www.w3.org/2000/svg"><g clip-path="url(#da)" fill="#000"><path d="M22.5 3.75H11.25v.833H22.5V3.75ZM18.333 5.417H11.25v.833h7.083v-.833ZM18.333 7.083H11.25v.834h7.083v-.834ZM22.5 2.083h-7.917v.834H22.5v-.834ZM13.75 2.083h-.833v.834h.833v-.834ZM12.917 16.667h-.834v.833h.834v-.833ZM6.961 2.795l-.589-.59-.833.834a.417.417 0 0 0 0 .589l.833.833.59-.589-.54-.539.54-.538ZM10.295 3.039l-.834-.834-.589.59.539.538-.539.54.59.588.833-.833a.417.417 0 0 0 0-.59ZM7.938 1.951l-.834 2.5.79.264.834-2.5-.79-.264ZM21.667 12.917V9.583h-.834v3.334H20V8.75h-.833v4.167h-.834v-2.084H17.5v2.084h-.833v-2.5h-.834v2.5H15V11.25h-.833v1.667h-.834v.833H22.5v-.833h-.833Z"/><path d="M22.083 0H2.917a2.502 2.502 0 0 0-2.5 2.5V16.667a2.503 2.503 0 0 0 2.5 2.5h5.159L6.409 22.5H4.167a1.25 1.25 0 1 0 0 2.5h16.666a1.25 1.25 0 0 0 0-2.5h-2.242l-1.667-3.333h5.16a2.503 2.503 0 0 0 2.5-2.5V2.5a2.503 2.503 0 0 0-2.5-2.5ZM1.25 5.862l.947 1.128c.08.094.196.149.32.149h1.275c.123 0 .24-.055.319-.149l.947-1.128.935.304.104 1.468c.008.123.07.236.17.308l1.032.75c.1.072.226.097.346.067l1.43-.355.579.795-.78 1.25a.416.416 0 0 0-.04.35l.394 1.213a.417.417 0 0 0 .24.257l1.365.554v.983l-1.366.554a.414.414 0 0 0-.24.258L9.102 15h-2.4A3.923 3.923 0 0 0 1.25 9.884V5.862Zm0 5.013A3.095 3.095 0 0 1 5.75 15h-4.5v-4.125Zm19.583 12.458a.417.417 0 0 1 0 .834H4.167a.417.417 0 0 1 0-.834h16.666ZM17.66 22.5H7.341l1.667-3.333h6.985l1.666 3.333Zm6.091-5.833c0 .92-.746 1.666-1.667 1.666H2.917c-.92 0-1.667-.746-1.667-1.666v-.834h22.5v.834Zm0-1.667H10.106l1.3-.527a.417.417 0 0 0 .26-.386v-1.545a.417.417 0 0 0-.26-.387l-1.448-.585-.274-.844.826-1.325a.417.417 0 0 0-.017-.465l-.908-1.25a.417.417 0 0 0-.437-.16l-1.515.375-.716-.52-.11-1.554a.417.417 0 0 0-.287-.367l-1.469-.478a.42.42 0 0 0-.448.13L3.6 6.304h-.888L1.708 5.111a.42.42 0 0 0-.448-.128l-.01.003V2.5c0-.92.746-1.667 1.667-1.667h19.166c.92 0 1.667.747 1.667 1.667V15Z"/></g><defs><clipPath id="da"><path fill="#fff" d="M0 0h25v25H0z"/></clipPath></defs></symbol><symbol fill="none" viewBox="0 0 20 20" id="facebook" xmlns="http://www.w3.org/2000/svg"><path d="M17.07 0H2.93A2.933 2.933 0 0 0 0 2.93v14.14A2.933 2.933 0 0 0 2.93 20h5.898v-7.07H6.484V9.414h2.344V7.031a3.52 3.52 0 0 1 3.515-3.515h3.555V7.03h-3.555v2.383h3.555l-.586 3.516h-2.969V20h4.727A2.933 2.933 0 0 0 20 17.07V2.93A2.933 2.933 0 0 0 17.07 0Z" fill="#000"/></symbol><symbol fill="none" viewBox="0 0 20 19" id="github" xmlns="http://www.w3.org/2000/svg"><path d="M10 0C4.475 0 0 4.362 0 9.741c0 4.305 2.865 7.955 6.838 9.242.5.092.683-.21.683-.468 0-.232-.008-.844-.013-1.657-2.781.588-3.368-1.306-3.368-1.306-.455-1.125-1.112-1.425-1.112-1.425-.906-.604.07-.592.07-.592 1.004.068 1.531 1.004 1.531 1.004.892 1.49 2.341 1.059 2.913.81.09-.63.347-1.059.633-1.302-2.22-.244-4.555-1.082-4.555-4.814 0-1.063.388-1.932 1.03-2.614-.113-.246-.45-1.236.087-2.578 0 0 .837-.26 2.75.999.8-.217 1.65-.324 2.5-.329.85.005 1.7.112 2.5.329 1.9-1.26 2.737-.999 2.737-.999.538 1.342.2 2.332.1 2.578a3.719 3.719 0 0 1 1.025 2.614c0 3.742-2.337 4.566-4.562 4.805.35.293.675.89.675 1.803 0 1.303-.013 2.35-.013 2.667 0 .256.175.56.688.463 4-1.279 6.863-4.932 6.863-9.23C20 4.361 15.523 0 10 0Z" fill="#212121"/></symbol><symbol fill="none" viewBox="0 0 20 20" id="instagram" xmlns="http://www.w3.org/2000/svg"><path d="M13.75 0h-7.5A6.25 6.25 0 0 0 0 6.25v7.5A6.25 6.25 0 0 0 6.25 20h7.5A6.25 6.25 0 0 0 20 13.75v-7.5A6.25 6.25 0 0 0 13.75 0Zm4.375 13.75a4.38 4.38 0 0 1-4.376 4.375h-7.5a4.38 4.38 0 0 1-4.374-4.375v-7.5A4.38 4.38 0 0 1 6.25 1.875h7.5a4.38 4.38 0 0 1 4.375 4.375v7.5Z" fill="#000"/><path d="M10 5a5 5 0 1 0 0 10 5 5 0 0 0 0-10Zm0 8.125A3.13 3.13 0 0 1 6.875 10 3.129 3.129 0 0 1 10 6.875 3.129 3.129 0 0 1 13.124 10 3.13 3.13 0 0 1 10 13.125ZM15.374 5.291a.666.666 0 1 0 0-1.332.666.666 0 0 0 0 1.332Z" fill="#000"/></symbol><symbol fill="none" viewBox="0 0 30 30" id="telegram" xmlns="http://www.w3.org/2000/svg"><path d="M15 30c8.286 0 15-6.714 15-15S23.286 0 15 0 0 6.714 0 15s6.714 15 15 15ZM6.864 14.675l14.462-5.576c.671-.243 1.258.163 1.04 1.178h.002l-2.463 11.6c-.183.823-.671 1.023-1.355.636l-3.75-2.764-1.809 1.742c-.2.2-.368.369-.756.369l.266-3.816 6.95-6.279c.303-.266-.067-.416-.466-.151l-8.589 5.407-3.702-1.155c-.804-.255-.822-.803.17-1.191Z" fill="#000"/></symbol><symbol fill="none" viewBox="0 0 21 25" id="university" xmlns="http://www.w3.org/2000/svg"><path d="m17.717 16.333-1.467-.43-3.193-2.086v-.478a4.248 4.248 0 0 0 1.677-2.984.976.976 0 0 0 .819-.961V6.4a.722.722 0 0 0 .301-.59V4.29l2.203-.376a.77.77 0 0 0 .648-.715.77.77 0 0 0-.542-.799L10.736.037a.777.777 0 0 0-.474 0L2.836 2.399a.77.77 0 0 0-.543.799.771.771 0 0 0 .3.565v1.991h-.019a.76.76 0 0 0-.758.759V7.5l-.49 2.874a.815.815 0 0 0 .804.952h1.658a.815.815 0 0 0 .803-.952L4.101 7.5v-.988a.76.76 0 0 0-.758-.759h-.018V3.98l1.82.31V5.81c0 .241.118.456.301.589l.001 1.68v1.314c0 .484.355.887.819.961a4.25 4.25 0 0 0 1.675 2.983v.48l-3.192 2.085-1.466.43a3.724 3.724 0 0 0-2.676 3.575V21a.366.366 0 0 0 .732 0v-1.092c0-1.32.885-2.5 2.15-2.872l1.367-.401 5.457 3.243a.37.37 0 0 0 .374 0l5.458-3.243 1.366.4a3.01 3.01 0 0 1 2.15 2.873v3.537c0 .454-.37.823-.823.823h-1.614v-1.579a.366.366 0 1 0-.732 0v1.579H4.507v-1.579a.366.366 0 1 0-.733 0v1.579H2.162a.824.824 0 0 1-.823-.823v-.734a.366.366 0 0 0-.732 0v.734c0 .857.697 1.555 1.555 1.555h16.676c.858 0 1.555-.698 1.555-1.555v-3.537a3.724 3.724 0 0 0-2.676-3.575Zm-13.93-5.739H2.13a.083.083 0 0 1-.082-.096l.443-2.6h.935l.443 2.6a.083.083 0 0 1-.082.096ZM3.37 6.513v.653h-.82v-.653c0-.015.01-.027.025-.027h.769c.014 0 .026.012.026.027ZM9.19 18.22l.146.224-3.739-2.221 2.373-1.55a7.692 7.692 0 0 0 1.22 3.547Zm-.002-1.58a9.414 9.414 0 0 0 2.624 0c-.166.41-.372.805-.616 1.18l-.696 1.07-.696-1.07a6.994 6.994 0 0 1-.616-1.18Zm2.622 1.58a7.69 7.69 0 0 0 1.22-3.547l2.373 1.55-3.739 2.221.146-.224Zm2.142-11.684h.868v1.177h-.431a.438.438 0 0 1-.437-.437v-.74ZM3.058 3.097 10.485.735a.048.048 0 0 1 .029 0l7.427 2.362c.015.005.036.012.034.05-.003.038-.025.042-.04.044l-2.456.418-.922-.114a.366.366 0 0 0-.09.727l.655.081v1.502H5.878V4.302l3.79-.469a6.783 6.783 0 0 1 1.663 0l1.434.178a.366.366 0 0 0 .09-.727l-1.434-.177a7.513 7.513 0 0 0-1.843 0L5.52 3.61 3.064 3.19c-.016-.002-.037-.006-.04-.044-.003-.038.018-.045.034-.05Zm3.121 4.617V6.537h.87v.74a.438.438 0 0 1-.438.437h-.432Zm.806 2.453a.567.567 0 0 0-.564-.532.242.242 0 0 1-.242-.241v-.948h.432a1.17 1.17 0 0 0 1.17-1.17v-.739h5.438v.74c0 .644.525 1.17 1.17 1.17h.432v.947a.242.242 0 0 1-.242.241.567.567 0 0 0-.564.532 3.527 3.527 0 0 1-3.515 3.298 3.527 3.527 0 0 1-3.515-3.298Zm3.515 4.03c.651 0 1.27-.149 1.825-.414v.232c0 .627-.084 1.244-.247 1.84-.995.19-2.12.197-3.156 0a6.978 6.978 0 0 1-.247-1.84l-.002-.023v-.209a4.228 4.228 0 0 0 1.827.414Z" fill="#000"/></symbol></svg>
